# Blender 4.3.0
# www.blender.org
mtllib coin.mtl
o Cylinder001
v 0.375444 2.459867 -6.758493
v 0.375444 4.623067 -5.509593
v 0.375444 6.228667 -3.596093
v 0.375444 7.082967 -1.248894
v 0.375444 7.082967 1.248906
v 0.375445 6.228667 3.596107
v 0.375445 4.623067 5.509606
v 0.375445 2.459867 6.758506
v 0.375445 -0.000032 7.192206
v 0.375445 -2.459932 6.758506
v 0.375445 -4.623033 5.509606
v 0.375445 -6.228632 3.596107
v 0.375444 -7.082932 1.248906
v 0.375444 -7.082932 -1.248894
v 0.375444 -6.228632 -3.596093
v 0.375444 -4.623033 -5.509593
v 0.375444 -2.459932 -6.758493
v 0.375444 -0.000032 -7.192294
v 0.225244 -2.459932 -6.758493
v 0.225244 -0.000032 -7.192294
v 0.225244 -4.623033 -5.509593
v 0.225244 -6.228632 -3.596093
v 0.225244 -7.082932 -1.248894
v 0.225245 -7.082932 1.248906
v 0.225245 -6.228632 3.596107
v 0.225245 -4.623033 5.509606
v 0.225245 -2.459932 6.758506
v 0.225245 -0.000032 7.192206
v 0.225245 2.459867 6.758506
v 0.225245 4.623067 5.509606
v 0.225245 6.228667 3.596107
v 0.225245 7.082967 1.248906
v 0.225244 7.082967 -1.248894
v 0.225244 6.228667 -3.596093
v 0.225244 4.623067 -5.509593
v 0.225244 2.459867 -6.758493
v 0.075044 -2.459932 -6.758493
v 0.075044 -0.000032 -7.192294
v 0.075044 -4.623033 -5.509593
v 0.075044 -6.228632 -3.596093
v 0.075045 -7.082932 -1.248894
v 0.075045 -7.082932 1.248906
v 0.075045 -6.228632 3.596107
v 0.075045 -4.623033 5.509606
v 0.075045 -2.459932 6.758506
v 0.075045 -0.000032 7.192206
v 0.075045 2.459867 6.758506
v 0.075045 4.623067 5.509606
v 0.075045 6.228667 3.596107
v 0.075045 7.082967 1.248906
v 0.075045 7.082967 -1.248894
v 0.075044 6.228667 -3.596093
v 0.075044 4.623067 -5.509593
v 0.075044 2.459867 -6.758493
v -0.075054 -2.459932 -6.758493
v -0.075054 -0.000032 -7.192294
v -0.075054 -4.623033 -5.509593
v -0.075054 -6.228632 -3.596093
v -0.075054 -7.082932 -1.248894
v -0.075054 -7.082932 1.248906
v -0.075054 -6.228632 3.596107
v -0.075054 -4.623033 5.509606
v -0.075054 -2.459932 6.758506
v -0.075054 -0.000032 7.192206
v -0.075054 2.459867 6.758506
v -0.075054 4.623067 5.509606
v -0.075054 6.228667 3.596107
v -0.075054 7.082967 1.248906
v -0.075054 7.082967 -1.248894
v -0.075054 6.228667 -3.596093
v -0.075054 4.623067 -5.509593
v -0.075054 2.459867 -6.758493
v -0.225254 -2.459932 -6.758493
v -0.225254 -0.000032 -7.192294
v -0.225254 -4.623033 -5.509593
v -0.225254 -6.228632 -3.596093
v -0.225254 -7.082932 -1.248894
v -0.225254 -7.082932 1.248906
v -0.225254 -6.228632 3.596107
v -0.225254 -4.623033 5.509606
v -0.225254 -2.459932 6.758506
v -0.225254 -0.000032 7.192206
v -0.225254 2.459867 6.758506
v -0.225254 4.623067 5.509606
v -0.225254 6.228667 3.596107
v -0.225254 7.082967 1.248906
v -0.225254 7.082967 -1.248894
v -0.225254 6.228667 -3.596093
v -0.225254 4.623067 -5.509593
v -0.225254 2.459867 -6.758493
v -0.375454 -2.459932 -6.758493
v -0.375454 -0.000032 -7.192294
v -0.375454 -4.623033 -5.509593
v -0.375454 -6.228632 -3.596093
v -0.375454 -7.082932 -1.248894
v -0.375454 -7.082932 1.248906
v -0.375454 -6.228632 3.596107
v -0.375454 -4.623033 5.509606
v -0.375454 -2.459932 6.758506
v -0.375454 -0.000032 7.192206
v -0.375454 2.459867 6.758506
v -0.375454 4.623067 5.509606
v -0.375454 6.228667 3.596107
v -0.375454 7.082967 1.248906
v -0.375454 7.082967 -1.248894
v -0.375454 6.228667 -3.596093
v -0.375454 4.623067 -5.509593
v -0.375454 2.459867 -6.758493
vn 0.6700 0.2539 -0.6976
vn 0.6700 0.4772 -0.5687
vn 0.6700 0.6429 -0.3712
vn 0.6700 0.7311 -0.1289
vn 0.6700 0.7311 0.1289
vn 0.6700 0.6429 0.3712
vn 0.6700 0.4772 0.5687
vn 0.6700 0.2539 0.6976
vn 0.6700 -0.0000 0.7423
vn 0.6700 -0.2539 0.6976
vn 0.6700 -0.4772 0.5687
vn 0.6700 -0.6429 0.3712
vn 0.6700 -0.7311 0.1289
vn 0.6700 -0.7311 -0.1289
vn 0.6700 -0.6429 -0.3712
vn 0.6700 -0.4772 -0.5687
vn 0.6700 -0.2539 -0.6976
vn 0.6700 -0.0000 -0.7423
vn -0.0000 -0.3420 -0.9397
vn -0.0000 -0.0000 -1.0000
vn -0.0000 -0.6428 -0.7660
vn -0.0000 -0.8660 -0.5000
vn -0.0000 -0.9848 -0.1736
vn -0.0000 -0.9848 0.1736
vn -0.0000 -0.8660 0.5000
vn -0.0000 -0.6428 0.7660
vn -0.0000 -0.3420 0.9397
vn -0.0000 -0.0000 1.0000
vn -0.0000 0.3420 0.9397
vn -0.0000 0.6428 0.7660
vn -0.0000 0.8660 0.5000
vn -0.0000 0.9848 0.1736
vn -0.0000 0.9848 -0.1736
vn -0.0000 0.8660 -0.5000
vn -0.0000 0.6428 -0.7660
vn -0.0000 0.3420 -0.9397
vn -0.6700 -0.2539 -0.6976
vn -0.6700 -0.0000 -0.7423
vn -0.6700 -0.4772 -0.5687
vn -0.6700 -0.6429 -0.3712
vn -0.6700 -0.7311 -0.1289
vn -0.6700 -0.7311 0.1289
vn -0.6700 -0.6429 0.3712
vn -0.6700 -0.4772 0.5687
vn -0.6700 -0.2539 0.6976
vn -0.6700 -0.0000 0.7423
vn -0.6700 0.2539 0.6976
vn -0.6700 0.4772 0.5687
vn -0.6700 0.6429 0.3712
vn -0.6700 0.7311 0.1289
vn -0.6700 0.7311 -0.1289
vn -0.6700 0.6429 -0.3712
vn -0.6700 0.4772 -0.5687
vn -0.6700 0.2539 -0.6976
vt 0.146500 0.145100
vt 0.290800 0.045100
vt 0.460800 0.000000
vt 0.636200 0.015200
vt 0.795800 0.088900
vt 0.920300 0.212100
vt 0.994700 0.370100
vt 1.010000 0.543700
vt 0.964400 0.712100
vt 0.863500 0.854900
vt 0.719200 0.954900
vt 0.549200 1.000000
vt 0.373800 0.984800
vt 0.214200 0.911100
vt 0.089700 0.787900
vt 0.015300 0.629900
vt 0.000000 0.456300
vt 0.045600 0.287900
vt 0.000000 0.000000
vt 1.010000 0.000000
vt 1.010000 1.000000
vt 0.000000 1.000000
s 1
usemtl 01___Default
f 1/1/1 2/2/2 3/3/3 4/4/4 5/5/5 6/6/6 7/7/7 8/8/8 9/9/9 10/10/10 11/11/11 12/12/12 13/13/13 14/14/14 15/15/15 16/16/16 17/17/17 18/18/18
f 18/19/18 17/20/17 19/21/19 20/22/20
f 17/19/17 16/20/16 21/21/21 19/22/19
f 16/19/16 15/20/15 22/21/22 21/22/21
f 15/19/15 14/20/14 23/21/23 22/22/22
f 14/19/14 13/20/13 24/21/24 23/22/23
f 13/19/13 12/20/12 25/21/25 24/22/24
f 12/19/12 11/20/11 26/21/26 25/22/25
f 11/19/11 10/20/10 27/21/27 26/22/26
f 10/19/10 9/20/9 28/21/28 27/22/27
f 9/19/9 8/20/8 29/21/29 28/22/28
f 8/19/8 7/20/7 30/21/30 29/22/29
f 7/19/7 6/20/6 31/21/31 30/22/30
f 6/19/6 5/20/5 32/21/32 31/22/31
f 5/19/5 4/20/4 33/21/33 32/22/32
f 4/19/4 3/20/3 34/21/34 33/22/33
f 3/19/3 2/20/2 35/21/35 34/22/34
f 2/19/2 1/20/1 36/21/36 35/22/35
f 1/19/1 18/20/18 20/21/20 36/22/36
f 20/19/20 19/20/19 37/21/19 38/22/20
f 19/19/19 21/20/21 39/21/21 37/22/19
f 21/19/21 22/20/22 40/21/22 39/22/21
f 22/19/22 23/20/23 41/21/23 40/22/22
f 23/19/23 24/20/24 42/21/24 41/22/23
f 24/19/24 25/20/25 43/21/25 42/22/24
f 25/19/25 26/20/26 44/21/26 43/22/25
f 26/19/26 27/20/27 45/21/27 44/22/26
f 27/19/27 28/20/28 46/21/28 45/22/27
f 28/19/28 29/20/29 47/21/29 46/22/28
f 29/19/29 30/20/30 48/21/30 47/22/29
f 30/19/30 31/20/31 49/21/31 48/22/30
f 31/19/31 32/20/32 50/21/32 49/22/31
f 32/19/32 33/20/33 51/21/33 50/22/32
f 33/19/33 34/20/34 52/21/34 51/22/33
f 34/19/34 35/20/35 53/21/35 52/22/34
f 35/19/35 36/20/36 54/21/36 53/22/35
f 36/19/36 20/20/20 38/21/20 54/22/36
f 38/19/20 37/20/19 55/21/19 56/22/20
f 37/19/19 39/20/21 57/21/21 55/22/19
f 39/19/21 40/20/22 58/21/22 57/22/21
f 40/19/22 41/20/23 59/21/23 58/22/22
f 41/19/23 42/20/24 60/21/24 59/22/23
f 42/19/24 43/20/25 61/21/25 60/22/24
f 43/19/25 44/20/26 62/21/26 61/22/25
f 44/19/26 45/20/27 63/21/27 62/22/26
f 45/19/27 46/20/28 64/21/28 63/22/27
f 46/19/28 47/20/29 65/21/29 64/22/28
f 47/19/29 48/20/30 66/21/30 65/22/29
f 48/19/30 49/20/31 67/21/31 66/22/30
f 49/19/31 50/20/32 68/21/32 67/22/31
f 50/19/32 51/20/33 69/21/33 68/22/32
f 51/19/33 52/20/34 70/21/34 69/22/33
f 52/19/34 53/20/35 71/21/35 70/22/34
f 53/19/35 54/20/36 72/21/36 71/22/35
f 54/19/36 38/20/20 56/21/20 72/22/36
f 56/19/20 55/20/19 73/21/19 74/22/20
f 55/19/19 57/20/21 75/21/21 73/22/19
f 57/19/21 58/20/22 76/21/22 75/22/21
f 58/19/22 59/20/23 77/21/23 76/22/22
f 59/19/23 60/20/24 78/21/24 77/22/23
f 60/19/24 61/20/25 79/21/25 78/22/24
f 61/19/25 62/20/26 80/21/26 79/22/25
f 62/19/26 63/20/27 81/21/27 80/22/26
f 63/19/27 64/20/28 82/21/28 81/22/27
f 64/19/28 65/20/29 83/21/29 82/22/28
f 65/19/29 66/20/30 84/21/30 83/22/29
f 66/19/30 67/20/31 85/21/31 84/22/30
f 67/19/31 68/20/32 86/21/32 85/22/31
f 68/19/32 69/20/33 87/21/33 86/22/32
f 69/19/33 70/20/34 88/21/34 87/22/33
f 70/19/34 71/20/35 89/21/35 88/22/34
f 71/19/35 72/20/36 90/21/36 89/22/35
f 72/19/36 56/20/20 74/21/20 90/22/36
f 74/19/20 73/20/19 91/21/37 92/22/38
f 73/19/19 75/20/21 93/21/39 91/22/37
f 75/19/21 76/20/22 94/21/40 93/22/39
f 76/19/22 77/20/23 95/21/41 94/22/40
f 77/19/23 78/20/24 96/21/42 95/22/41
f 78/19/24 79/20/25 97/21/43 96/22/42
f 79/19/25 80/20/26 98/21/44 97/22/43
f 80/19/26 81/20/27 99/21/45 98/22/44
f 81/19/27 82/20/28 100/21/46 99/22/45
f 82/19/28 83/20/29 101/21/47 100/22/46
f 83/19/29 84/20/30 102/21/48 101/22/47
f 84/19/30 85/20/31 103/21/49 102/22/48
f 85/19/31 86/20/32 104/21/50 103/22/49
f 86/19/32 87/20/33 105/21/51 104/22/50
f 87/19/33 88/20/34 106/21/52 105/22/51
f 88/19/34 89/20/35 107/21/53 106/22/52
f 89/19/35 90/20/36 108/21/54 107/22/53
f 90/19/36 74/20/20 92/21/38 108/22/54
f 108/1/54 92/2/38 91/3/37 93/4/39 94/5/40 95/6/41 96/7/42 97/8/43 98/9/44 99/10/45 100/11/46 101/12/47 102/13/48 103/14/49 104/15/50 105/16/51 106/17/52 107/18/53
